<svg width="72" height="55" viewBox="0 0 72 55" fill="none" xmlns="http://www.w3.org/2000/svg">
<path fill-rule="evenodd" clip-rule="evenodd" d="M0.225 7.12708C0.678682 5.10236 1.79395 3.29456 3.38815 1.99975C4.98235 0.704934 6.96098 -0.000139766 9 2.07815e-08H63C65.039 -0.000139766 67.0177 0.704934 68.6118 1.99975C70.206 3.29456 71.3213 5.10236 71.775 7.12708L36 29.3975L0.225 7.12708ZM0 12.3612V44.9212L26.1135 28.6137L0 12.3612ZM30.4245 31.3042L0.8595 49.7612C1.58997 51.3301 2.74287 52.6553 4.18402 53.5827C5.62516 54.5102 7.29529 55.0017 9 55H63C64.7044 55.0004 66.3739 54.5078 67.8143 53.5796C69.2546 52.6513 70.4065 51.3256 71.136 49.7567L41.571 31.2996L36 34.7692L30.4245 31.2996V31.3042ZM45.8865 28.6183L72 44.9212V12.3612L45.8865 28.6137V28.6183Z" fill="#23A6F0"/>
</svg>
